<svg xmlns="http://www.w3.org/2000/svg">
    <symbol id="svg-icon-github" viewBox="0 0 496 512">
        <path fill="currentColor" d="M165.9 397.4c0 2-2.3 3.6-5.2 3.6-3.3.3-5.6-1.3-5.6-3.6 0-2 2.3-3.6 5.2-3.6 3-.3 5.6 1.3 5.6 3.6zm-31.1-4.5c-.7 2 1.3 4.3 4.3 4.9 2.6 1 5.6 0 6.2-2s-1.3-4.3-4.3-5.2c-2.6-.7-5.5.3-6.2 2.3zm44.2-1.7c-2.9.7-4.9 2.6-4.6 4.9.3 2 2.9 3.3 5.9 2.6 2.9-.7 4.9-2.6 4.6-4.6-.3-1.9-3-3.2-5.9-2.9zM244.8 8C106.1 8 0 113.3 0 252c0 110.9 69.8 205.8 169.5 239.2 12.8 2.3 17.3-5.6 17.3-12.1 0-6.2-.3-40.4-.3-61.4 0 0-70 15-84.7-29.8 0 0-11.4-29.1-27.8-36.6 0 0-22.9-15.7 1.6-15.4 0 0 24.9 2 38.6 25.8 21.9 38.6 58.6 27.5 72.9 20.9 2.3-16 8.8-27.1 16-33.7-55.9-6.2-112.3-14.3-112.3-110.5 0-27.5 7.6-41.3 23.6-58.9-2.6-6.5-11.1-33.3 2.6-67.9 20.9-6.5 69 27 69 27 20-5.6 41.5-8.5 62.8-8.5s42.8 2.9 62.8 8.5c0 0 48.1-33.6 69-27 13.7 34.7 5.2 61.4 2.6 67.9 16 17.7 25.8 31.5 25.8 58.9 0 96.5-58.9 104.2-114.8 110.5 9.2 7.9 17 22.9 17 46.4 0 33.7-.3 75.4-.3 83.6 0 6.5 4.6 14.4 17.3 12.1C428.2 457.8 496 362.9 496 252 496 113.3 383.5 8 244.8 8zM97.2 352.9c-1.3 1-1 3.3.7 5.2 1.6 1.6 3.9 2.3 5.2 1 1.3-1 1-3.3-.7-5.2-1.6-1.6-3.9-2.3-5.2-1zm-10.8-8.1c-.7 1.3.3 2.9 2.3 3.9 1.6 1 3.6.7 4.3-.7.7-1.3-.3-2.9-2.3-3.9-2-.6-3.6-.3-4.3.7zm32.4 35.6c-1.6 1.3-1 4.3 1.3 6.2 2.3 2.3 5.2 2.6 6.5 1 1.3-1.3.7-4.3-1.3-6.2-2.2-2.3-5.2-2.6-6.5-1zm-11.4-14.7c-1.6 1-1.6 3.6 0 5.9 1.6 2.3 4.3 3.3 5.6 2.3 1.6-1.3 1.6-3.9 0-6.2-1.4-2.3-4-3.3-5.6-2z"/>
    </symbol>
    <symbol id="svg-icon-learn" viewBox="0 0 64 64">
        <path fill="white" d="M36 21H7c-2.2 0-4 1.8-4 4v18c0 2.2 1.8 4 4 4h4v6l8-6h13.3c2.2 0 4.5-2.3 4.5-4.5"/>
        <path fill="tomato" d="M26 35V17c0-2.2 1.8-4 4-4h27c2.2 0 4 1.8 4 4v18c0 2.2-1.8 4-4 4h-5v6l-8.7-6H30c-2.2 0-4-1.8-4-4z"/>
        <path fill="none" stroke="#252525" stroke-linecap="round" stroke-linejoin="round" stroke-miterlimit="10" stroke-width="2" d="M26 35V17c0-2.2 1.8-4 4-4h27c2.2 0 4 1.8 4 4v18c0 2.2-1.8 4-4 4h-5v6l-8.7-6H30c-2.2 0-4-1.8-4-4z"/>
        <path fill="none" stroke="#252525" stroke-linecap="round" stroke-linejoin="round" stroke-miterlimit="10" stroke-width="2" d="M22 21H7c-2.2 0-4 1.8-4 4v18c0 2.2 1.8 4 4 4h4v6l8-6h13.3c2.2 0 4.5-2.3 4.5-4.5M34 22h8.1s-2.5 6.5-7.8 8m3.7 4v-5.8l3.5 1M38 22v-3m7 3h8v6h-8zm0 3h8m-7 7h6m-7.4-13 2.1 3"/>
        <path fill="none" stroke="#252525" stroke-linecap="round" stroke-linejoin="round" stroke-miterlimit="10" stroke-width="2" d="m48 19 1 3v12m4-15-1.7 3M9.9 38.1l2.4-8.1 2.4 8.1m-4.1-2.4h3.3M18 38v-8h2c.6 0 1.9.1 1.9 1.3s-.8 1.7-1.8 1.7H18h2.4s2.4-.1 2.4 2.7c0 2.1-1 2.3-2.4 2.3H18z"/>
    </symbol>
    <symbol id="svg-icon-user" viewBox="0 0 512 512">
        <g fill="tomato">
            <path d="M18.76 501.43C18.76 370.4 124.97 264.2 256 264.2s237.24 106.2 237.24 237.23H18.76z"/>
            <circle cx="256" cy="137.38" r="126.81"/>
        </g>
        <path fill="#252525" d="M431.23 326.2a246.35 246.35 0 0 0-115.17-65.29c45.73-22.32 77.32-69.3 77.32-123.53C393.38 61.63 331.75 0 256 0S118.62 61.63 118.62 137.38c0 54.23 31.58 101.2 77.32 123.53-43.22 10.71-82.87 33-115.17 65.3A246.18 246.18 0 0 0 8.2 501.42c0 5.84 4.73 10.57 10.57 10.57h474.48c5.84 0 10.57-4.73 10.57-10.57 0-66.2-25.78-128.42-72.58-175.23zM139.76 137.38c0-64.1 52.14-116.25 116.24-116.25s116.24 52.15 116.24 116.25S320.1 253.62 256 253.62s-116.24-52.15-116.24-116.24zM29.56 490.86c5.54-120.1 105-216.1 226.44-216.1s220.9 96 226.43 216.1H29.57z"/>
        <path fill="#252525" d="M65.4 466.03A10.56 10.56 0 0 1 55.1 453c12.9-53.6 47.56-100.65 95.1-129.05a10.57 10.57 0 1 1 10.84 18.15c-42.7 25.5-73.8 67.72-85.37 115.83a10.57 10.57 0 0 1-10.26 8.1zm145.15-144.76a10.57 10.57 0 0 1-2.43-20.85 207.6 207.6 0 0 1 47.88-5.58 10.57 10.57 0 0 1 0 21.13c-14.53 0-29 1.68-43 5-.82.2-1.64.3-2.45.3z"/>
    </symbol>
    <symbol id="svg-icon-audio" viewBox="0 0 32 32">
        <path fill="currentColor" d="M17.23 4a.9.9 0 0 0-.57.23l-7.6 6.32a1.16 1.16 0 0 1-.95.33H3.2a1.2 1.2 0 0 0-1.2 1.2v7.83a1.2 1.2 0 0 0 1.2 1.21h4.9a1.16 1.16 0 0 1 .95.33l7.6 6.32c.53.43 1.09.22 1.09-.3V4.53a.5.5 0 0 0-.51-.52ZM27 6.3l-1.8 1.8a14.7 14.7 0 0 1 0 15.84L27 25.7a17.19 17.19 0 0 0 0-19.4Zm-4.33 4.32L20.9 12.4a6.04 6.04 0 0 1 0 7.24l1.76 1.75a8.55 8.55 0 0 0 .01-10.77Z"/>
    </symbol>
</svg>
