<svg xmlns="http://www.w3.org/2000/svg" viewBox="0 0 1280 340" fill="rgba(255,0,0,0.25)">
  <path d="M13.2 2.7c-2.7 1.6-6.7 4.8-8.8 7.2L.5 14.3.2 35.8c-.2 16.3 0 21.7.9 22.3 1 .5 1 1.1.2 2.1C.6 61 .1 67 .1 76.3 0 90.9 0 91 2.2 91.2c3.3.2 4 .1 7.1-.7 2.4-.6 2.8-.5 2.5 1-.2 1-2.1 2.3-4.8 3.2-2.4.8-5 2.3-5.7 3.2C.4 99 .1 105.1 0 119.3 0 138.5.1 139 1.9 138c3-1.5 5.2-1.2 7.7 1.1 1.9 1.8 2.7 2 5.3 1.1 5.2-1.8 4.7.5-.9 3.7-2.1 1.2-2.5 1.1-3.7-.5-.7-1-1.3-2.4-1.3-3.1 0-1.5-2.9-1.7-6.4-.3L0 141v31.9c0 27.1.2 32 1.5 33.1.8.7 1.5 1.8 1.4 2.4 0 .7-.2.6-.6-.2-1.3-3.3-2.3-.4-2.3 7.2 0 7.1.3 8.5 1.7 9.1 1.7.6 1.7.7.1 1.6C.2 227 0 229 0 246c0 18 .1 18.9 2 19.5 1.9.6 5.5 6.9 5.1 8.9-.1.5.5 1.6 1.4 2.6 2 2.2.4 3.7-4.5 4.2l-3.5.3-.3 21.6-.2 21.5 3 4.2c4.2 5.8 7.5 7.3 15.5 6.8 3.6-.2 7.1-.8 7.8-1.4.6-.5 2.7-.9 4.5-.9 1.9 0 3.7-.5 4.1-1.2.9-1.4 6.1-.5 6.1 1 0 .5.8.9 1.8 1 1.4 0 1.4.2-.3.9-1.1.5-3.1 1.8-4.5 2.9l-2.5 2.1 95-.1c52.3 0 97.5-.4 100.5-.8 3-.5 5.6-.4 5.8 0 .2.5 35.5.9 78.8.9 77.7 0 78.4 0 78.4-2 0-2.7 3.6-2.7 5.2 0 1.3 2 2.4 2 152 2h150.7l.3-2.8.3-2.7 2.8 2.7 2.8 2.8h48.4c40.5 0 48.5-.2 48.5-1.4 0-.7-1.5-2.1-3.2-3-1.8-.8-2.9-1.6-2.4-1.6s.3-.7-.4-1.5c-1.6-1.9-1.7-1.9 5-3.6 4.2-1.1 5.4-1.9 5.2-3.2-.2-1.4.5-1.7 3.7-1.7 3.4 0 4.2.4 5.3 2.7 1.6 3.4 3.8 3.9 6.6 1.6 2.6-2.2 2-6.9-.9-7.6-1.3-.3-1.9-1.4-1.9-3.1 0-2.9 2.5-4.5 4.3-2.7.6.6 1.8 1.1 2.6 1.1 3.3.1 5.6 3.3 5.4 7.5-.1 2.2-.2 5.2-.2 6.6-.1 1.6-1.5 4-3.8 6.2l-3.6 3.7h34c29.1 0 34.2-.2 34.7-1.5.6-1.8-1.7-7.7-3.8-9.5-.9-.7-1.6-2.6-1.6-4.2 0-5-5.2-12.7-7.5-10.8-1.5 1.3-5.9-1.1-6.4-3.5-.2-1.1-1.4-3.4-2.8-5.1-2.4-3.2-2.6-3.2-10.9-3.3-8.2-.1-8.4 0-8.4 2.3 0 1.3-.8 3.4-1.9 4.7l-1.8 2.3-.9-2.5c-.4-1.3-.8-3.3-.8-4.4-.1-2-.9-2-79.6-2.2l-79.5-.2-1.7 3.5c-1 1.9-1.8 4.1-1.8 4.9 0 2.4 3 4.5 5.5 3.9 3.5-.9 5.4.7 2.4 1.9-1.3.6-2.6 1.1-2.9 1.1-.3.1-1.9 1.1-3.6 2.3l-3 2.2-3-2.4c-1.6-1.3-3.9-2.4-5-2.5-1.2 0-2.7-.7-3.4-1.5-1.1-1.3-1-1.8.5-2.9 2.1-1.5 1.5-3.9-2-7.9-2.4-2.7-2.7-2.7-11.7-2.5-8.6.3-9.3.5-9.6 2.4a4 4 0 0 0 1.3 3.4c2.9 2.4 1.8 3.9-2.2 3.3-2.1-.3-4-.7-4.2-.9-.2-.2.2-1.8.8-3.5.9-2.5.8-3.4-.1-4-1.6-1-154.2-.9-155.8.1-.8.5-.8 1.4 0 3.4 1.4 3.8 1.4 3.8-1.8 3.1-3.1-.6-14.9 1.8-16.5 3.4-1.6 1.6-6.7 1.4-6.7-.3 0-.8-.8-1.7-1.7-2.1-1.3-.6-.5-1 3-1.6 6.4-1 10.8-3.1 10.5-4.9-.3-1.3-9.5-1.5-75-1.7-62.7-.1-74.7.1-75.2 1.3-.3.7-.1 1.6.4 1.9.5.3.7 1.2.3 2-.3.9 0 2.2.7 3 1 1.2.9 1.5-.8 1.5-1.2 0-2.4-.5-2.7-1-.3-.6-1.3-1-2.1-1-1.6 0-5.4-3.5-5.4-5 0-2-3.9-2.8-14-2.6l-10.5.1.3 2.7c.2 2.2-.2 2.9-2.3 3.4-2.9.7-5.9-1.2-5.1-3.2.8-2-2.9-3.6-7.7-3.2-3.8.3-4.2.6-4.5 3.1-.4 3 1.7 5.7 4.3 5.7 1.3 0 .9.8-1.5 3-2.3 2.1-3.6 2.7-4.8 2.1-.9-.5-3-1.5-4.7-2.2-1.6-.8-4.2-2.5-5.7-3.8l-2.8-2.4 2.2-1.1c3.7-1.9 3.2-3.4-1.4-4-2.4-.3-21.6-.5-42.8-.3-37.3.2-38.5.3-39.5 2.2-2.3 4.5-2.5 4.5-5.5 1.2l-2.8-3.2-45.4-.6c-24.9-.3-46.4-.9-47.8-1.4-3.4-1.1-9.7-5.1-14.4-9.1-2.1-1.8-4.3-3.1-4.8-2.8-.4.3-1.6-.8-2.6-2.5-1.2-2.3-2.4-3.1-4.4-3.1-1.6 0-2.8-.5-2.8-1 0-.6 1.2-1 2.8-1 1.5 0 3.2-.8 3.8-1.7.6-1.1 1-9.5.9-21.8-.1-17.2-.3-20.5-1.9-23.7-1.9-4-1.6-6.8.8-6.8 1.1 0 1.3-2.2 1.1-12.6-.2-8.6-.7-12.9-1.5-13.4-1-.6-1-.8 0-1.2 1.5-.5 2.1-17.9.7-22.3-1.3-3.9-3.6-6.5-5.2-5.9-1 .4-1.2-.1-.8-1.5.3-1.2 0-2.8-.6-3.5-1-1.2-.6-1.4 3-1.3 4.1.2 4.3 0 4.6-2.7.2-2.6 0-2.8-2.8-2.4-3.4.5-3.4-1.1 0-2.8 2.2-1.1 2.3-1.6 2.2-15.3 0-7.7 0-14.6-.1-15.1 0-.6-1.2-1-2.7-1.1-2.6 0-7.8-1.7-5.9-1.8.5-.1.3-.8-.5-1.7-.8-1-2.1-1.3-3.6-.9-1.8.4-2.3.1-2.3-1.5 0-1.1.8-2.3 1.8-2.7 5.5-1.8 9.2-4 9.2-5.4 0-.9.9-2.4 2-3.4 2.9-2.7 2.5-5.8-.9-7.3-1.7-.7-3.6-1.2-4.3-1.1-2.9.3-3.9-.2-3.6-1.9.1-.9 0-2.2-.4-2.7-.4-.6 1.3-1 4.3-1.1 2.6-.1 5.5-.6 6.2-1.3 1.5-1.2 2-8.9 1.1-17.9-.6-5.3-.6-5.3-3.7-5.2-5 .3-5.1.2-7.1-3.5-1.1-1.9-2.6-3.6-3.5-3.7-.9 0-2-.2-2.6-.3-.5-.2-1.4-.4-2-.5-.5-.1-.1-.5 1-.9 1.1-.5 5.4-.6 9.7-.3 7.4.5 7.6.4 8-1.9.1-1.3.8-2.4 1.3-2.4.6 0 2.6-1.5 4.5-3.3 5.2-4.8 11.9-8.9 17-10.2 2.5-.7 4.9-1.5 5.4-1.8.6-.3 3.2-.4 5.8-.3 5.4.3 6.1-.9 2.6-4.6L87.7 34h2.6c1.5 0 2.7.6 2.8 1.2.1.7.2 2.2.3 3.3.1 2 .9 2 115.9 2.3 100.3.2 115.7 0 115.7-1.2 0-.8-.5-1.8-1.1-2.1-1.4-1-.6-2.8 1.5-3.1 1.1-.2 1.6.3 1.4 1.5-.6 3.6 2.1 5.1 8.7 5.1 4.7 0 6.4-.4 6.9-1.5.3-.8 1.5-1.5 2.6-1.5s2-.5 2-1c0-.6.9-1 1.9-1 1.1 0 2.2-.4 2.5-.9.3-.5 1.5-.7 2.6-.4 2.4.6 2.6-1 .5-5-1.2-2.3-1.2-3.2-.2-4.8 1-1.6.9-2.1-.2-2.8-1-.7-1.1-1.3-.2-2.9.6-1.1 1.1-3.6 1.1-5.6 0-4 1.1-4.6 6.4-3.3 3.3.9 4.5.7 8.2-1.3 4.1-2.3 4.4-2.3 6.2-.6 1.2 1 1.8 2.5 1.5 3.7-.3 1 0 2.6.7 3.4 1 1.2.9 1.5-.4 1.5-.9 0-1.6-.7-1.6-1.6 0-1.4-.8-1.5-4.7-.9-7.5 1.1-8.5 2-7.9 6.6.5 3.9.5 3.9-3.5 4.5-4.5.8-5.9 2.2-3.7 3.8.9.6 1.7 2 1.9 3.1.2 1 1.5 2.2 2.9 2.5 1.7.4 2.1.8 1.2 1.4-.6.4-1.2 1.6-1.2 2.6 0 1.9 2.3 2 132.9 2h133l2-2.9c2.5-3.4 2.5-3.5.9-5.3-2-2.1-4-5.9-3.5-6.5.3-.2 1.4 0 2.4.5 1 .6 2.5.7 3.3.2.8-.4 3.4-1 5.7-1.4 4.1-.6 4.3-.5 6.1 3 1.7 3.3 4.4 5.5 8.4 7 .9.3 1.8 1.6 2 2.8l.3 2.1 55.3.3c42 .2 55.2-.1 55.2-1 0-.6-1.5-2.4-3.2-4-3.2-2.7-3.2-2.8-1.4-4.3 1.1-.8 3-1.5 4.2-1.5 2.1 0 2.8 1.6 3.7 8.5.3 2.4 5.7 3.6 5.7 1.2 0-3 7.6-2.7 9.5.3.9 1.5 80.1 1.3 82.9-.2 1.9-1 1.9-1.1.2-2.4-1-.7-1.6-2.1-1.4-3.1.3-1.5 1.4-1.8 7.8-1.8h7.5l.3 3c.6 5.1 1.6 5.5 12.3 5.5 9.1 0 9.9-.2 9.9-1.9 0-1.1-.4-2.2-1-2.6-1.8-1.1.2-3.5 3-3.5 1.6 0 3.5-.7 4.4-1.5.8-.8 1.9-1.5 2.5-1.5.5 0 1.6-.9 2.3-1.9 1.6-2.2 3.6-2.7 6.1-1.6 2.1.9 4.7-1 4.7-3.6 0-1-.8-2-1.7-2.3-1.2-.4-1.8-1.7-1.9-3.6-.1-3.9-.6-4.3-5.1-4.4-3.5-.2-3.8-.4-4.1-3.3-.3-2.5.1-3.2 2-3.7 3.8-1 6.8-.7 6.8.7 0 .7.6 2.2 1.4 3.3 1.2 1.5 1.7 1.6 2.7.7 1-1 1.8-.9 3.9.4 2.7 1.6 2.7 1.6 1.3 6.2-.7 2.5-1.8 5-2.3 5.5-.6.6-1 2-1 3.1 0 1.2-.9 3-2 4s-2 2.5-2 3.4c-.1 1.9-2.8 5.7-3.8 5.3-.4-.1-.7.4-.7 1 0 1 5.4 1.4 22.8 1.6 19.1.2 23.1 0 25.1-1.3 1.3-.9 3-1.3 3.8-1 2 .8 3.4-4.1 1.8-6-2-2.4.6-2.4 6.6 0 3.5 1.5 6.9 2.3 8.5 1.9 2.1-.4 2.8.1 4.4 3l1.9 3.6 58.8-.3c38.6-.1 58.7-.5 58.6-1.2-.2-.6-1-1-1.8-1-1.4 0-4-3.9-4-6.3 0-1.9 1.4-1.4 4 1.3s4.9 3.2 6.8 1.3c.9-.9 1.2-.9 1.2 0 0 .6 2 2.3 4.3 3.7 5 2.9 12.7 3.5 12.7 1.1 0-.8-.4-1.8-1-2.1-1.8-1.1-1.1-2.3 1.8-2.8 3.3-.6 5.2.8 4.9 3.6-.2 2.1.3 2.2 9.4 2.5 8.4.2 9.7 0 11.3-1.7 1.9-2.1 5.6-1.8 5.6.5 0 1.1 3.7 1.4 20.5 1.4h20.5v-2.5c0-1.4.5-2.5 1.1-2.5.5 0 .9 1 .7 2.2-.3 2.1.2 2.3 6.2 3.1 3.5.4 9.2 2.1 12.6 3.7 3.4 1.7 7.1 3 8.2 3 1.2 0 2.4.5 2.7 1 .3.6 1.7.7 3 .4 2.2-.5 2.4-.2 3 4 1 6.2 4 6.1 7.3-.1 1-1.8 1.9-2.1 6.4-1.8 2.9.2 6.7.9 8.3 1.5l3 1.2-3.5 1.5c-1.9.8-4.1 2.2-4.7 3.1-.9 1.1-3.6 1.7-8.5 2.1l-7.3.6v38h3.2c4 0 6 1.7 4 3.4-1.1.9-1.7.8-2.7-.4a4.8 4.8 0 0 0-3.1-1.5c-1.8 0-1.9 1.3-1.9 27.3 0 26.6.1 27.3 2.1 28.5 2 1.3 2 1.4.3 2.6-.9.7-1.4 1.8-1 2.4.3.6.2 1.3-.4 1.7-1.1.7-1.5 53.1-.4 55.9.3.9 1.5 1.6 2.5 1.6s4.8 1.6 8.5 3.6c3.6 1.9 6.8 3.3 7.2 3 .3-.3 1.2 0 2.1.8.9.8 2.4 1.6 3.4 1.7 1 .2 1.8.8 1.8 1.4 0 1.6-6.1 2.7-10.9 2-3.7-.5-4.2-.9-3.7-2.6.4-1.3.1-2.1-1-2.6-.9-.3-2.8-1.7-4.1-3-1.4-1.3-3.2-2.3-4.2-2.1-1.4.3-1.7 1.8-2 9.7-.3 10.4.2 11.5 4.9 9.7 3.9-1.4 5.6.7 2.8 3.5-2.5 2.5-2.4 5 .1 5.6 1 .3 2.2 1.3 2.5 2.2.7 2.2 4.9 4.6 6.5 3.6.6-.4.9-1.3.6-2.1-.3-.8-.1-1.4.5-1.4.5 0 1.2.8 1.6 1.8.3.9 2 2.9 3.6 4.3l3 2.5-2.3 3.2c-2.6 3.5-4.7 3.9-8.9 1.7-2.6-1.3-6.1-6.7-6.1-9.4 0-1.7-3.8-3.2-6.5-2.5l-2.6.6.2 10.8c.2 9.7-.1 11.2-2.5 16.5-5.2 11.4-16.6 18.5-30.2 18.9-3.1.1-5 .7-5.8 1.9-1.7 2.2-2.2 2.2-2.9-.3-.5-1.9-2.1-1.9-103.3-1.7l-102.9.2-.3 2.2c-.3 1.8.5 2.6 3.8 3.9l4.1 1.7-2.2 2.3c-1.2 1.3-2.8 2.4-3.6 2.4-.7 0-1.3.4-1.3 1 0 1-6.3 4-8.6 4-.8 0-1.4-.6-1.4-1.3 0-.7-.9-2.3-2.1-3.5-2.2-2.5-1.8-6.2.7-6.2.8 0 2.2-.4 3.2-.9.9-.5 2.5-1.2 3.5-1.5 2.4-.8 2.1-3.3-.5-3.9-1.3-.3-15.7-.6-32-.7l-29.7-.1-.3 2.8c-.2 2.1-.8 2.7-2.2 2.5-1.8-.3-5.6 2.8-5.6 4.8 0 .5.6 1 1.3 1 1.5 0 4.7 3.1 4.7 4.4 0 1.1-7.2-.3-8.8-1.7-.9-.7-1.1-2.5-.6-6.5.5-4.1.3-5.6-.7-6.3-2.2-1.4-31.3-1.1-32.7.3-1.5 1.5-1.6 4.8-.2 4.8.6 0 .8 1.1.4 2.6-.9 3.4 2.4 6.4 7 6.4 1.9 0 3.6.5 3.8 1.1.3.9.9.9 2.5.1 1.7-.9 2.4-.7 4.1 1.1 3.2 3.4 1.7 7.9-2.7 8.8-4.9 1-5.9 2.4-3.9 5.7.9 1.5 2.5 3.1 3.7 3.7 1.2.5 2.1 1.3 2.1 1.7 0 .5 9.3.8 20.6.8 13.4 0 20.3-.3 19.9-1-.3-.6-.1-1 .4-1 .6 0 1.1.4 1.1.8 0 .5 4.9 1 10.9 1.1 10.1.2 11 .1 11.6-1.8.3-1 2.1-3.1 4-4.6 4.1-3.1 6.4-2 5.7 2.7-.3 2.3 0 2.8 1.5 2.8 2.2 0 5.7-3.3 4.6-4.3-.3-.4-1.5-.7-2.5-.7-1.6 0-1.7-.3-.6-2.3.7-1.2 1.4-2.3 1.5-2.5.6-1.3 5.7 3.8 7 7l1.5 3.8h28.9c25.2 0 28.9-.2 28.9-1.5 0-.9-1.2-2-2.6-2.5-2.2-.9-2.4-1.3-1.4-2.5.9-1.1 1-1.9.1-2.8-.6-.8-.7-1.7-.2-2.3.5-.5 1.1-1.8 1.3-2.8.2-1.6 1.2-2 4.4-2.1 3.1-.1 4 .2 3.7 1.2-.3.8.3 1.3 1.6 1.3 1.8 0 2 .4 1.4 3.2-.3 1.8-1 3.7-1.4 4.3-1.6 1.6-1 2.4 3.3 4.5 4.4 2.1 14.8 2.8 14.8 1 0-.6-.6-1-1.4-1-2 0-2.7-2.7-1.1-4 1.2-1 1.8-.5 3.2 2.4l1.7 3.6h15.4c13.6 0 15.6-.2 16.8-1.8 1.2-1.6 1.4-1.6 4.2 0 2.1 1.2 5 1.8 9.4 1.7 6 0 6.2-.1 4.1-1.6-1.3-.8-2.3-1.8-2.3-2.2 0-.4 3.4-.7 7.5-.9 5.1-.1 7.5.2 7.5.9 0 2.7 3.6 3.8 12.3 3.9 5.1 0 8.7-.4 8.7-1s.9-1.9 2-3c1.6-1.6 2.5-1.8 4-1 1.1.6 2 1.7 2 2.5 0 2.4 1.8 2.6 5.2.5 4.1-2.5 4.8-2.5 4.8 0 0 2 .7 2 42.6 2 47.1 0 45.3.2 53.3-6.7 7.6-6.4 7.1-1.3 7.1-79.3v-70.1l-2.1 1.2c-1.8.9-2.4.7-3.7-1.3-2-2.7-2.3-6.8-.6-7.5.7-.2 2.4.3 3.8 1.2l2.6 1.7v-16.6c0-10.4-.4-16.6-1-16.6-.5 0-1-1.1-1-2.5s.5-2.5 1-2.5c.6 0 1-.7 1-1.5s-.4-1.5-1-1.5a1 1 0 0 0-1 1c0 1.2-1 1.3-2.9.1-2.1-1.4.4-5.4 3-4.6 1.7.6 1.9.1 1.9-3.8 0-2.6-.5-4.7-1.2-4.9-.6-.2-1.2-1.6-1.2-3-.1-1.7.3-2.4 1.1-2.1 1 .4 1.3-1.2 1.3-6.6 0-5.8-.3-7.1-1.6-7.1-.9 0-2.9-1.4-4.4-3-2.7-2.9-2.8-3.3-1.6-6.8 1.1-3.1 1.8-3.8 4.4-4l3.2-.3V15.2l-3.3-4.4a39.8 39.8 0 0 0-8.2-7.6c-4.9-3.2-5.1-3.2-17.2-3.2s-14.6.7-12.4 3.3c.7.9.4 1.6-1 2.5-1.1.7-1.7 1.7-1.4 2.2.3.6-.1 1-.9 1-1.8 0-2-1.2-.7-5.8l1-3.2h-18c-9.8 0-17.9.2-17.9.4 0 2.3 2.6 6.6 3.9 6.6 1 0 2.6.9 3.6 2 1.5 1.7 1.6 2 .3 1.5-.9-.4-1.9-.2-2.3.4-.3.6-1.7 1.1-2.9 1.1-1.3 0-2.9.7-3.6 1.5-.7.8-1.8 1.5-2.5 1.5s-1.8.7-2.5 1.5-2.4 1.5-3.7 1.5c-2.2 0-2.4-.2-1.3-1.5 1-1.2 1-2.5.2-5.3-.5-2-.9-4.8-.7-6.2.5-4.8-.7-5.2-15.8-4.9l-14 .3-3.4 3.5-3.5 3.6.7-3.8.7-3.7h-53.8l-3.3 3.4c-4.2 4.4-10.1 4.2-10.1-.3 0-2-2.6-3.1-7.7-3.1-2.4 0-3.3.5-3.3 1.6 0 1.2-.5 1.4-1.7.8-1-.5-4.9-.9-8.8-1-3.8-.1-8.2-.5-9.7-.9-2.3-.6-2.9-.3-3.9 1.8-.9 2-.9 3.3.1 5.6 1 2.5 1 3.3-.3 4.6-2.4 2.3-7.2 1.9-10.3-1-2.4-2.2-2.6-2.9-2-7l.7-4.5h-71.4c-61 0-71.9.2-74.3 1.5-1.7.8-3.2 1.1-3.7.6-.5-.5-1.6-.7-2.3-.4-.8.3-1.4 0-1.4-.6 0-.7-25.5-1.1-86.5-1.1-47.6 0-86.5.3-86.5.8 0 .4.6 1.6 1.4 2.7.7 1.1 1.6 4.1 2 6.6.6 4.2.5 4.7-1.5 5.2-1.2.3-3.2-.1-4.4-.9-1.2-.8-3.5-1.4-5.1-1.2-1.6.1-4.4-.6-6.2-1.6-2.6-1.3-3.1-2.1-2.7-4.1.3-1.4.7-3.6 1-5L698 0H535.2l-1.4 2.2c-1.1 1.6-2.6 2.2-6 2.4-4.2.3-4.7 0-5.2-2.2L522 0h-85.9l-1.6 3c-2 3.9-1.9 6.3.5 8.5 2.6 2.4 2.6 4.5-.1 3.8-1.5-.4-2.2 0-2.6 1.6-.3 1.1-.9 2.1-1.4 2.1-1.8 0-6.6-3.5-6.2-4.6.2-.6-1.5-2.3-3.7-3.9-2.2-1.5-4-3.3-4-3.9 0-.7-.6-2.4-1.3-3.9-1.1-2.6-1.5-2.7-8.9-2.7-4.6 0-7.8.4-7.8 1 0 .5.9 1 2 1 2.1 0 2.7 2.4 1.1 4.9-.6.9-1.9 1.2-4.3.7-2.6-.5-3.8-1.4-5.1-4.1L391 0h-20.1c-17.5 0-20 .2-19.5 1.5.3.8.2 1.5-.3 1.5s-1.4-.7-2.1-1.5C347.9.2 332.4 0 220.9 0 151.1 0 94 .4 94 .8s.5 1.3 1.2 2c.9.9.6 1.2-1.5 1.2-2 0-2.7.5-2.7 1.9 0 1.1.5 2.3 1 2.6 2.5 1.6-.6 2.5-6.6 2.1-5.6-.5-6.6-.3-8.4 1.6-1.1 1.2-2 3-2 4 0 1.2-1.9 2.7-5.9 4.7-7.7 3.7-9.9 4.2-12.2 2.8-1.4-.9-2.4-.9-3.7-.1-3.6 2.3-2.2 8.4 1.9 8.4 2 0 2.3.8 1.1 2.7-.6.9-2.3.9-7.6-.2-3.8-.8-7.3-1.2-7.7-.9-2 1.2-.7-1 1.6-2.8 2.9-2.2 2.7-4.2-.7-9.1-1.3-1.8-2.8-2.7-4.6-2.7-1.5 0-4-.1-5.6-.2-4.3-.4-5.9 2.7-2.7 5.3 1.3 1 3.2 1.9 4.2 1.9s1.9.4 1.9 1v1.7c0 1-5.3 1.1-7.2.1-1-.5-2.8-.3-4.5.4-1.5.6-3.6 1-4.5.9-1-.1-1.8.3-1.8.8 0 .6-.7 1.1-1.5 1.1-1.7 0-2-1.1-.5-2.6.5-.5.6-2.4.1-4.6-.6-2.7-.5-4.2.5-5.7.8-1 1.1-2.6.8-3.4-.3-.8.2-1.7 1.1-2.1.9-.3 1.5-1.3 1.3-2.2-.3-1.8.5-2 9.6-2.7 3.8-.3 5.1-.8 5.7-2.3.4-1.1 1.4-2.6 2.3-3.3C39.4.6 38 0 28.1 0c-8.9 0-10.4.3-14.9 2.7zM1082 5.1c1.5 2.8.5 5.3-1.8 4.4-.9-.4-2.7-.7-3.9-.6-1.4 0-2.3-.5-2.3-1.4 0-.9.6-1.2 1.6-.8 1 .4 1.7-.1 2.1-1.6.7-2.7 2.9-2.7 4.3 0zM660 10c-2.5 1.6-4.4 1.1-5.6-1.4-.9-1.8-.8-2.5.5-3.4 1.2-.8 2.2-.5 4.1 1.4 2.1 2.1 2.3 2.6 1 3.4zM522.2 8.2c-.7.7-1.2.8-1.2.2 0-1.4 1.2-2.6 1.9-1.9.2.3-.1 1.1-.7 1.7zm-214.6 1c-.3 1.3-.6 2.8-.6 3.4 0 .6-1.4 1.4-3.1 1.8-2.2.4-3.6.1-5.1-1.4l-2.2-2h2.5c1.4 0 3.4-.9 4.5-1.9 2.7-2.8 4.8-2.7 4 .1zm851.8.3c-.4.8-1 1.2-1.5.9-1.4-.8-1-2.4.6-2.4.9 0 1.2.6.9 1.5zm9.7 4.3c.1 2 0 4.7 0 5.9-.1 1.2.4 2.5 1.2 3 .8.4 1.7 1.8 2.1 3 .6 1.8.2 2.2-2.4 2.8-1.6.4-3 1-3 1.4 0 1.9-2.7 4.2-4.3 3.5-2.3-.9-2.1-2.4.3-2.4 1.1 0 2.3-.7 2.7-1.5 1-2.7-1.8-10.5-4.4-12.2-2.7-1.8-3.1-5.3-.5-5.1 4.2.3 5.4-.2 4.9-2.2-.4-1.7-.2-1.8 1.4-.9 1.3.7 1.9 2.1 2 4.7zm-146.5 1.6c1.4 1.1 1.6 1.7.7 2.7-.6.6-.9 1.8-.6 2.5 1 2.6-.6 1.4-2.2-1.6-2.5-4.9-1.7-6.4 2.1-3.6zm-892.7 1.3c2.3.9 2.3 1-1.7 4.1-3.6 2.9-4.1 3-5.3 1.6-1-1.2-2.5-1.5-5.8-1.1-5.2.6-9.1-.6-9.1-2.8 0-1.4 1.1-1.9 3.7-1.6.6.1 1.4-.3 1.7-.8.7-1.1 13-.6 16.5.6zM518 19.5c0 .5-.5.3-1-.5s-1-2-1-2.5c0-.6.5-.3 1 .5s1 1.9 1 2.5zm81-.9c1.1 1.2 1.1 1.8-.2 3-1.6 1.6-4.8.9-4.8-1 0-1.3 2-3.6 3.1-3.6.4 0 1.2.7 1.9 1.6zm-60.4 2c1.5 1.8 3.3 1.8 5.4-.1 1.5-1.4 1.8-1.4 2.3-.1.3.8-.2 1.6-1.4 1.9-1 .3-1.9 1.2-1.9 2.1 0 2.1 3.7 3.9 6.6 3.2 2.6-.7 3.3.8.8 1.8-.9.3-3.1.6-4.9.6-1.9 0-4 .7-4.9 1.5-.8.8-1.7 1.5-2 1.5-.3 0-1.5.9-2.6 2-2.2 2.2-4 2.6-4 1 0-.6.7-1 1.5-1 1.7 0 2-1.6.5-2.5-.6-.4-1.8-.1-2.7.7-1.3 1-1.7 1-2 0-.7-1.8-2.3-1.5-4.2 1l-1.8 2.2-1.8-2.8c-1.1-1.6-2.4-2.5-3.2-2.2-1 .4-1.3 0-1.1-1.2.2-1 1.2-1.7 2.7-1.7 1.3 0 2.6-.6 2.8-1.3.3-.6-.3-1.2-1.2-1.2-1.1 0-1.5-.7-1.3-2.3.3-1.9.8-2.2 3.8-1.9 2.3.1 4.4-.5 6-1.7 2.7-2.2 6.7-1.9 8.6.5zM148.5 20c.3.5-.1 1-.9 1-.9 0-1.6-.5-1.6-1 0-.6.4-1 .9-1 .6 0 1.3.4 1.6 1zm232.8 2c.9 0 1.9.4 2.2 1 .7 1.1-6.3 1.4-9 .4-1.4-.6-1.4-.8.1-2.5s1.9-1.8 3.4-.4c.9.8 2.4 1.5 3.3 1.5zm-122.2-.4c1.6 1.4 1.5 1.7-.8 4.2-1.9 2-3.2 2.6-5.6 2.3-1.8-.1-3.4-.4-3.5-.6-.8-.7 3.3-6.4 4.7-6.8 2.9-.8 3.4-.7 5.2.9zm815.7 1.9c.6 1.4 1.6 2.5 2.2 2.5.7 0 1.8.7 2.6 1.5 1.4 1.3 1.2 1.6-1.1 2.5-4.6 1.8-7.9.7-8.6-2.6-.3-1.8 0-3.5.9-4.7 2-2.3 2.7-2.2 4 .8zm-282.1.1c-.3.3-1.2.4-1.9.1-.8-.3-.5-.6.6-.6 1.1-.1 1.7.2 1.3.5zm292.6 2.6c-.6 3-3.2 3.9-2.9 1 .1-1.4 2.7-4.5 3.3-3.9 0 .1-.1 1.4-.4 2.9zm-59.8-1.2c.3.5.1 1-.4 1-.6 0-1.1-.5-1.1-1 0-.6.2-1 .4-1 .3 0 .8.4 1.1 1zm-444.7 2.7c.8 1.3.4 2.1-1.4 3.6-1.3 1-2.4 2.5-2.4 3.4 0 1.3-.9 1.5-5.1 1.1-2.8-.3-5.7-1.2-6.5-2-1.2-1.2-1-1.4 1.8-1.4 3 0 6-1.7 9.2-5.1 1.6-1.7 3.3-1.6 4.4.4zm374.9-.3c2.7.3 3.9.9 4.2 2.2.2 1 1.1 2.4 2 3.1 1.4 1.2 1.3 1.3-.9.8-1.4-.3-3.7-.2-5 .3-1.9.7-3.4.4-6.2-1-2.1-1.1-3.8-2.5-3.8-3.2 0-2 2.3-3.6 4.1-3.1 1 .3 3.5.7 5.6.9zm274.7 4.3c1.1 1.5 2 3.3 1.8 4-.1.7.5 2.5 1.5 4l1.8 2.8-3.8-2.9c-4.5-3.5-6-6-5.2-8.6.8-2.6 1.3-2.5 3.9.7zM967 31c0 .5-.4 1-1 1-.5 0-1-.5-1-1 0-.6.5-1 1-1 .6 0 1 .4 1 1zm68.9 1.6c.3 1.6.1 1.7-1.3.5-1.9-1.6-2.1-3.4-.3-2.9.6.3 1.4 1.3 1.6 2.4zM241 35.4c0 .5-.7.1-1.5-1-.8-1-1.4-2.4-1.4-2.9 0-.6.6-.1 1.4.9.8 1.1 1.5 2.4 1.5 3zm783.8-.3c-.2.6-.8 1-1.3 1s-1.1-.4-1.3-1c-.2-.6.4-1.1 1.3-1.1s1.5.5 1.3 1.1zm-535.1 2.1c-.3.8-.6.5-.6-.6-.1-1.1.2-1.7.5-1.3.3.3.4 1.2.1 1.9zM1275 68.7c0 .7-.7 1.3-1.5 1.3-2.6 0-6.6 3.2-6.1 4.7.8 2-1.8 4.3-4.8 4.3-2.9 0-3.3-1.2-1.1-3.4.8-.8 1.5-2.2 1.5-3 0-.9.4-1.6.9-1.6s2.2-1.3 3.7-2.9c2.3-2.5 3-2.8 5.1-1.8 1.2.5 2.3 1.6 2.3 2.4zM43.9 85.6c-2.1 1.1-2.7 1-4.8-1.1-3.6-3.5-1.8-4.9 3.1-2.4l4.2 2.1-2.5 1.4zM6.5 112c.3.5 2.3 1 4.4 1 2.2 0 4.4.6 5.1 1.5.7.8 2 1.5 2.9 1.5.9 0 2.4 1.1 3.4 2.5 2.1 2.9.9 4-4.5 4.1-2.7 0-3.8-.4-4.1-1.8-.3-1-1.8-2.1-3.5-2.4-3.5-.7-7.7-4.7-6.7-6.3.8-1.4 2.2-1.4 3-.1zM1267 132.5c0 3.7-.2 3.8-3.7 2.9-3.9-1.1-2.3-6.4 1.9-6.4 1.4 0 1.8.8 1.8 3.5zm5 6.7c0 .4-.9.8-2.1.8-1.1 0-1.8-.4-1.5-.8.3-.5 1.2-.9 2.1-.9.8 0 1.5.4 1.5.9zm-1227 3c-2.7 2.2-5.3 2-5.8-.4-.3-1.4.5-1.7 3.9-1.6h4.3l-2.4 2zm1218 11.3c1.5-.9 9.7 2.2 10.4 4 .2.7-.2 1.9-1 2.5-.8.7-1.4 1.8-1.4 2.5 0 .8-1.3 1.6-3 2-1.6.4-3 1.3-3 2.1 0 1.7 0 1.7-3.8-.2-2.7-1.3-3-1.9-2.5-4.4.3-1.9 0-3.4-.9-4.4-1.2-1.1-1.6-4.1-.9-6.4.1-.1 1.2.5 2.6 1.4 1.3.8 2.9 1.3 3.5.9zM37.5 158c.3.5.2 1-.4 1-.5 0-1.3-.5-1.6-1-.3-.6-.2-1 .4-1 .5 0 1.3.4 1.6 1zm5.5 2.2c0 .4-.7.8-1.5.8s-1.5-.4-1.5-.8c0-.5.7-.9 1.5-.9s1.5.4 1.5.9zm-22.5 2.9c-.8 1.3-6.2 1.1-7.1-.2-.4-.7 0-.9 1.2-.5 1.1.3 2.6.1 3.4-.4 1.6-1 3.3-.3 2.5 1.1zm-6.2 8.5c-.6 1.7-7.3 5.6-8.7 5.1-.6-.2-1.1-1.7-1.1-3.3 0-2.8 2.2-5.5 5.5-6.6 1.8-.7 5 3 4.3 4.8zm16.3-2.1c.9.8 2.4 1.5 3.4 1.5 1.6 0 1.3.6-1.5 3.2-5.4 5.1-6.9 6.2-9.8 7.7-2.5 1.3-2.9 1.3-4.8-.5-1.9-2-1.9-2 .1-4.2 1.1-1.1 2-3 2-4.1 0-1.2 1.2-2.4 3.8-3.4 4.7-2 5-2 6.8-.2zm1228.3 5.6c1.7.6 3.1 1.6 3.1 2.2 0 .7.3 3 .7 5.2l.6 3.9-3.1-3.2c-1.8-1.8-3.2-4.1-3.2-5.2 0-1-.8-2.4-1.7-2.9-2.4-1.4-.4-1.4 3.6 0zM40.4 190.5c.8.8 2.3 2.5 3.3 3.8 1 1.3 2.9 2.9 4.2 3.6 3.2 1.7 1.4 3.3-4.2 3.7-3.3.2-4.7-.1-5.1-1.1-.8-2.3-4.6-1.8-7.2 1-2.2 2.4-7.4 3.5-7.4 1.6 0-.6-1.8-2.1-4.1-3.4l-4.1-2.5L18 195c1.8-1.8 2.9-2.1 5.8-1.5 4.8.9 6.7 2.6 2 1.9-3.8-.7-5.4.6-4.4 3.3.5 1.2.9 1.3 2.1.3.8-.6 1.9-.9 2.5-.5.5.3 1 .1 1-.5 0-.7.7-.9 1.6-.6 2.1.8 4.5-1.1 3.8-2.9-1.6-4.1 4.7-7.3 8-4zM1275 193c0 .5-.2 1-.4 1-.3 0-.8-.5-1.1-1-.3-.6-.1-1 .4-1 .6 0 1.1.4 1.1 1zM9.1 198.8c-1.7.3-2.2.8-1.8 2.3.6 2.3-1.1 2.1-2.7-.3-.7-1.2-.6-2.1.3-3.2 1-1.2 1.7-1.3 3.9-.3 2.6 1.2 2.6 1.2.3 1.5zm28.9 5.6c0 .7 1 1.6 2.1 1.9 2.1.6 2.1.7.4 2.3-1.7 1.7-1.6 1.9.9 3.9 3.1 2.5 2.5 3.5-2 3.5-3.4 0-5.2-1.4-3.4-2.5.6-.4.7-1.2.3-1.8-.4-.6-.6-2.4-.5-3.9.1-1.5-.3-2.8-.8-2.8-.6 0-.8-.5-.5-1 .9-1.5 3.5-1.2 3.5.4zm10 4.6c0 .5-.4 1-1 1-.5 0-1-.5-1-1 0-.6.5-1 1-1 .6 0 1 .4 1 1zm1223 5.2c0 .7-.5 2-1 2.8-.9 1.3-1.2 1.3-2.1-.3-.6-.9-1.4-1.5-2-1.2-.5.4-.9-.1-.9-.9 0-1.1.9-1.6 3-1.6 1.7 0 3 .5 3 1.2zM9 219c0 1.5-3.8 3.2-4.5 2-.3-.5-.3-1.5 0-2 .8-1.3 4.5-1.3 4.5 0zm22.2 24.1c.9.5 1.8 2.1 2 3.6.2 1.7 1.2 3.2 2.6 3.8 1.2.5 2.2 1.8 2.2 2.7 0 2.7.1 3.1 1.1 5.1.7 1.3.6 1.9-.6 2.3-1 .4-1.3 1.3-1 2.5.4 1.1.2 1.9-.4 1.9-1.9 0-3.9-3-3.4-5 .4-1.4 0-2-1-2-.9 0-2.7-1.1-4-2.4-2-2-2.1-2.5-.9-3.3 1.1-.6 1.3-1.7.8-3.6-.9-3.7-3.4-4.6-5.5-1.8-1.3 1.7-2.3 2-4.9 1.5-3.8-.8-4.1-2.8-.9-5.5 1.8-1.5 3.1-1.8 7.2-1.3 2.8.4 5.8 1 6.7 1.5zM1267.5 282c.3.5.1 1-.4 1-.6 0-1.1-.5-1.1-1 0-.6.2-1 .4-1 .3 0 .8.4 1.1 1zM1034 307.4c0 .3-.4.8-1 1.1-.5.3-1 .1-1-.4 0-.6.5-1.1 1-1.1.6 0 1 .2 1 .4zm-854.8 3.8c.7.7 3.4 2.4 5.9 3.7 4.7 2.4 5 3.1 4 10.4-.2 1.3-7.2 3.9-8.9 3.2-1-.4-2.4.4-3.7 2.1-1.5 1.9-3.2 2.7-6.1 3-2.1.1-4.8.6-6 .9-1.2.4-2.9-.1-4.3-1.2l-2.3-1.9 4.7-2.3c2.7-1.4 5.2-3.4 5.9-5 .6-1.4 2.4-4.5 3.9-6.8 1.5-2.4 2.7-4.7 2.7-5.2s.6-1.2 1.3-1.4c.6-.3 1.3-.6 1.4-.6.1-.1.8.5 1.5 1.1zm855.6 2.3c.9 2 .9 2.5-.2 2.5-1.3 0-2.6-2-2.6-4.1 0-1.8 1.7-.8 2.8 1.6zm71.8-.3c.4.5-.2.8-1.4.8s-2.7.9-3.4 2c-.7 1.1-1.9 2-2.6 2-1 0-.9-.7.3-2.8 1.6-2.7 5.3-3.7 7.1-2zM878 317.4c0 1.8-6.8 7.8-8.3 7.3-1.8-.6-2.1-3.7-.4-3.7.8 0 1.7-.7 2.1-1.5.3-.9 1.6-2 2.8-2.5 3.2-1.2 3.8-1.2 3.8.4zM700.5 321c1 1.1 1.3 2 .7 2-.7 0-1.2.7-1.2 1.6 0 1 .6 1.4 1.5 1 1.2-.4 1.5.3 1.5 2.9 0 3.4-.1 3.5-3.9 3.5-3.4 0-4.1-.4-5.3-3-.7-1.7-1.7-3-2.2-3-.4 0-.3-.7.4-1.5.7-.9 1-1.8.6-2.2-.6-.6 3.1-3 5-3.2.6-.1 1.9.8 2.9 1.9zm357.2 2.7c-.3.3-1.1.2-1.7-.2-.8-.5-.7-1.1.2-2.2 1.2-1.5 1.3-1.4 1.6.1.2 1 .1 2-.1 2.3zm-797.9 4.1c.8 2.2.6 3.3-.9 5.1-1.9 2.3-2.1 2.2-2.3-1.4-.1-2.4-3.5-3.1-6.6-1.5-1.5.8-2 1.8-1.7 3.1.4 1.5 0 1.9-1.9 1.9-2.2 0-3.3-1.4-1.6-2.2.4-.2 1.5-1.7 2.4-3.3 1.6-2.9 3-3.4 10.5-4.4.6 0 1.5 1.2 2.1 2.7zm272.7-1.8c.3.5-.1 1-.9 1s-1.8-.5-2.1-1c-.3-.6.1-1 .9-1s1.8.4 2.1 1zm216.4 3.7c-.9.2-1.9 1.6-2.3 3.1-.8 3.9-2 5.4-3.8 4.7-1.1-.4-1.6-1.8-1.5-4.1.1-2.9.4-3.4 1.9-3.1 1 .3 2.1.1 2.4-.4.3-.5 1.5-.8 2.7-.8 1.5.1 1.7.3.6.6zM441.5 333c.3.5.3 1.5-.1 2.1-.6 1.1-2.3-.6-2.4-2.4 0-1 1.8-.9 2.5.3zm497.3 2c-.7 1.1-1.8 2-2.5 2-1.7 0-1.6-.5.3-2.4 2.2-2.3 3.7-2 2.2.4zm-737.4.6c.5 1.3 1.4 1.5 4.1 1 2.2-.4 3.5-.3 3.5.4 0 1.6-9.7 1.3-10.3-.4-.6-1.4.1-2.6 1.4-2.6.4 0 1 .7 1.3 1.6zm565.2 2.2c-1 1-2.9-1.5-2.1-2.8.6-.9 1-.8 1.7.4.6 1 .7 2 .4 2.4z"/>
  <path d="M40.5 1c.3.5 1.2.7 2 .4C44 .8 46 3.8 46 6.9c0 1.9 1.1 2.5 4.7 2.4 2.1-.1 2.3 2.7.3 4.4-1.1 1-2 2.2-2 2.8 0 1.7 5.8 5.6 6.5 4.4.4-.5 1.4-.9 2.3-.8 3.2.3 4.2-.1 4.2-1.6 0-.8.5-1.5 1.1-1.5.6 0 .8-.7.5-1.7-.4-.9-.1-2 .6-2.4.9-.6.9-1.4.1-3.2-.8-1.8-2-2.4-4.3-2.5-3.8-.1-5.4-1.2-1.9-1.3 5.8-.3 10.5-.1 12 .5C72 7.2 77 5.5 77 4c0-.5-.7-1-1.6-1C74 3 74 2.7 75 1.5 76.1.2 74.1 0 58.1 0c-11.3 0-18 .4-17.6 1zm383.5.5c0 2.1 2.9 3.1 5.1 1.7 1-.7 2.6-1.2 3.4-1.2.8 0 1.5-.5 1.5-1 0-.6-2.2-1-5-1-3.8 0-5 .4-5 1.5zM701 1c0 .5.4 1 .9 1 .6 0 1.3-.5 1.6-1 .3-.6-.1-1-.9-1-.9 0-1.6.4-1.6 1zm341 .4c0 1.4 3.6 2.6 5.8 1.8 2.8-.9 1.1-3.2-2.3-3.2-2.3 0-3.5.5-3.5 1.4zM30.4 11.4c-.3.8.4 2.5 1.5 3.8 2 2.1 2.2 2.1 3.8.5 1.5-1.5 1.5-1.7-.8-2.5-1.3-.5-2.3-1.3-2.1-1.8.2-.5-.1-1-.7-1.2-.6-.2-1.4.3-1.7 1.2z"/>
  <path d="m43 14.8-2.3 1.9 2.2 2.2c2.6 2.6 3.8 2 4.7-2.7.8-3.8-1-4.3-4.6-1.4zm862.7 22.9c-.4.3-.7 1.2-.7 2 0 1.5 2.6 1.8 3.4.4.7-1.1-1.8-3.3-2.7-2.4zM143 68.4c-18.6 3.9-31.9 13.5-39 28-5.3 10.8-5.5 13.4-5.5 72.1.1 57.9.4 62.3 5.5 75.7 5.7 15.2 23.2 26.3 45 28.6 24.2 2.5 43.8-2.6 57.7-15.3 11.8-10.6 15.3-22.5 15.6-51.8l.2-17.2h-54l-.5 22.7c-.6 25.6-.8 26.3-7.6 26.1-7.3-.2-6.9 3.9-6.9-66.7 0-60.9.1-63.5 1.9-65.5 2.4-2.6 8.7-2.9 10.7-.4 1.1 1.2 1.5 7.6 1.9 27.7l.5 26.1h54l.3-13c.4-14.5-1.1-34.3-3.2-42.2-2.2-8.4-5.7-14.2-12.3-20.3-6.7-6.3-15.3-11-24.8-13.6-8.2-2.2-30.9-2.8-39.5-1zm132.6.2c-21.4 4.2-37.7 19.7-41.9 39.9-1.8 8.9-1.7 115.7.1 124 4.4 19.4 18.3 33.2 38.9 38.6 10.9 2.9 29.7 2.9 40.6 0 20.4-5.4 33.1-17.6 38.4-37.1 1.6-5.9 1.8-12 1.8-63 0-62.1-.1-63.7-6-75.6-6.6-13.5-20.4-23.4-37.7-26.8-9.3-1.9-24.8-1.9-34.2 0zm22.1 37.1c1.7 2.5 1.8 7 1.8 63.8 0 64.8-.1 66.6-4.7 67.8-3.2.9-6.7-1-7.5-4-.4-1.5-.8-30.3-.8-63.8 0-56.8.1-61.3 1.8-63.8 2.4-3.7 7-3.7 9.4 0zm67.8-33.5c-.3.7-.4 45.2-.3 98.8l.3 97.5 23.8.3 23.7.2.1-53.7c0-29.6.2-53.4.5-52.8.2.5 3.8 24.2 7.9 52.5 4.2 28.3 7.8 52.1 8 52.7.3 1 4.7 1.3 17.4 1.3h17l.6-3.3c.3-1.7 3.4-24.8 7-51.2 3.5-26.4 6.6-49.1 6.8-50.5.2-1.4.5 21.7.6 51.2l.1 53.8h48V71h-34.5c-26.7 0-34.7.3-35 1.2-.3.7-2.8 18.6-5.5 39.7s-5.1 38.5-5.3 38.7c-.1.2-2.4-14.9-5-33.4-2.7-18.5-5.4-36.4-6-39.7l-1.2-6-34.3-.3c-26.9-.2-34.4 0-34.7 1zm175.3-.6c-.5.4-.8 45-.8 99.1V269h54v-77.7l12.8-.6c14.8-.7 21.6-2 29.1-5.4 8-3.8 12.7-9.2 15.4-17.7 2-6.6 2.2-8.9 2.2-34.1 0-28.7-.6-33.7-5-42.5-4.3-8.5-12.7-14.3-25.6-17.6-5.2-1.4-13.2-1.8-43.9-2.1-20.6-.3-37.8-.1-38.2.3zm63.4 37.6c2.7 1.3 3.8 7.3 3.8 21.3 0 19.2-1.9 23.5-10.2 23.5H594v-22.8c0-12.6.3-23.1.6-23.5.7-.7 7.3.3 9.6 1.5zM661 170v99h85l-.2-20.8-.3-20.7-15.2-.3-15.3-.3V71h-54v99zm90.7-98.3c-.4.3-.7 44.9-.7 99V269h92l-.2-20.8-.3-20.7-18.8-.3-18.7-.2.2-19.8.3-19.7 16-.5 16-.5v-39l-16.2-.3-16.3-.2v-34l17.3-.2 17.2-.3v-41l-43.6-.3c-23.9-.1-43.9.1-44.2.5zm89.7.6c-.2.7-.3 10-.2 20.7l.3 19.5 15.3.3 15.2.3V269h54V113.1l15.3-.3 15.2-.3v-41l-57.3-.3c-46-.2-57.4 0-57.8 1.1zM961 170v99h92l-.2-20.8-.3-20.7-18.7-.3-18.8-.2v-40h32v-40h-32v-34h34V71h-88v99zm99 0v99h42.3c23.7 0 45-.5 48.7-1 8.7-1.4 18-6.1 22.5-11.3 2-2.3 4.5-7 5.7-10.7 2.2-6.3 2.2-8 2.6-65.9.5-77.6-.1-82.4-10.6-94.1-10.7-12.1-26.1-15-80.4-15H1060v99zm65-59.4 2.5 2.4.3 47.4c.4 51.6-.4 66.6-3.6 69.8-1 1.1-3.8 2.2-6.1 2.5l-4.1.6v-62.5c0-34.4.3-62.7.6-63.1 1.3-1.2 8 .7 10.4 2.9zm153.7-10.9c-1.1 1-.8 6.3.3 6.3.6 0 1-1.6 1-3.5 0-3.6-.2-4-1.3-2.8zM48.6 118.5c-2.5 3.7-2.1 5.5 1.3 5.5 3.2 0 4.7-3 3-6.2-1.3-2.4-2.4-2.3-4.3.7zm758.4 216c-.6.8-.9 2.3-.5 3.5.6 1.8 1.4 2 9.1 2 8.5 0 10.6-1.1 6.2-3.1-1.3-.5-3.4-1.6-4.8-2.4-3.2-1.9-8.4-1.9-10 0zm-782.2 2.6c-3.1 1.8-2 2.9 2.8 2.9 3.8 0 4.5-.3 4.2-1.8-.4-2-4.5-2.7-7-1.1z"/>
</svg>
